<svg width="17" height="17" viewBox="0 0 17 17" fill="none" xmlns="http://www.w3.org/2000/svg">
<path d="M8.31223 1.17838C6.78561 1.17838 5.29327 1.63108 4.02393 2.47922C2.75458 3.32737 1.76525 4.53287 1.18104 5.94329C0.596824 7.35371 0.443967 8.90569 0.741797 10.403C1.03963 11.9003 1.77477 13.2756 2.85425 14.3551C3.93374 15.4346 5.30909 16.1697 6.80638 16.4676C8.30367 16.7654 9.85565 16.6125 11.2661 16.0283C12.6765 15.4441 13.882 14.4548 14.7301 13.1854C15.5783 11.9161 16.031 10.4237 16.031 8.89713C16.0286 6.85071 15.2146 4.88879 13.7676 3.44175C12.3206 1.99472 10.3586 1.18074 8.31223 1.17838ZM8.31223 15.4284C7.02047 15.4284 5.75772 15.0453 4.68366 14.3277C3.60961 13.61 2.77248 12.59 2.27814 11.3965C1.78381 10.2031 1.65447 8.88988 1.90648 7.62294C2.15849 6.35601 2.78053 5.19225 3.69394 4.27884C4.60735 3.36543 5.77111 2.74338 7.03805 2.49137C8.30499 2.23936 9.6182 2.36871 10.8116 2.86304C12.0051 3.35737 13.0251 4.1945 13.7428 5.26856C14.4604 6.34262 14.8435 7.60537 14.8435 8.89713C14.8414 10.6287 14.1527 12.2888 12.9283 13.5132C11.7039 14.7376 10.0438 15.4263 8.31223 15.4284ZM8.90598 4.51228V8.89713C8.90595 9.05459 8.84337 9.20558 8.73201 9.31691L6.53989 11.5096C6.48472 11.5648 6.41923 11.6086 6.34716 11.6384C6.27508 11.6683 6.19783 11.6836 6.11981 11.6836C6.0418 11.6836 5.96454 11.6683 5.89247 11.6384C5.82039 11.6086 5.7549 11.5648 5.69973 11.5096C5.64457 11.4545 5.60081 11.389 5.57095 11.3169C5.5411 11.2448 5.52573 11.1676 5.52573 11.0895C5.52573 11.0115 5.5411 10.9343 5.57095 10.8622C5.60081 10.7901 5.64457 10.7246 5.69973 10.6695L7.71848 8.65072V4.51228C7.71848 4.35481 7.78104 4.20379 7.89239 4.09244C8.00374 3.98109 8.15476 3.91853 8.31223 3.91853C8.46971 3.91853 8.62073 3.98109 8.73208 4.09244C8.84343 4.20379 8.90598 4.35481 8.90598 4.51228ZM16.487 3.93338C16.3862 4.05428 16.2415 4.1302 16.0847 4.14445C15.9279 4.1587 15.7719 4.11012 15.651 4.00938L12.0885 1.04063C11.9718 0.938568 11.8997 0.794932 11.8875 0.640407C11.8753 0.485882 11.9241 0.33272 12.0233 0.213642C12.1225 0.0945645 12.2644 0.0190128 12.4186 0.00312786C12.5728 -0.0127571 12.7271 0.0322842 12.8485 0.128629L16.411 3.09738C16.5319 3.19819 16.6078 3.34288 16.6221 3.49964C16.6363 3.65641 16.5877 3.81242 16.487 3.93338ZM0.593483 4.14713C0.471502 4.14707 0.352498 4.10945 0.252655 4.03938C0.152811 3.9693 0.0769726 3.87017 0.0354533 3.75548C-0.00606607 3.64078 -0.0112516 3.51608 0.0206018 3.39833C0.0524553 3.28058 0.119802 3.1755 0.213483 3.09738L3.77598 0.128629C3.89741 0.0322842 4.0517 -0.0127571 4.20588 0.00312786C4.36007 0.0190128 4.50194 0.0945645 4.60117 0.213642C4.7004 0.33272 4.74913 0.485882 4.73695 0.640407C4.72477 0.794932 4.65265 0.938568 4.53598 1.04063L0.973483 4.00938C0.866824 4.09832 0.732362 4.14707 0.593483 4.14713Z" fill="#43AAFF"/>
</svg>
