<svg width="70" height="70" viewBox="0 0 70 70" fill="none" xmlns="http://www.w3.org/2000/svg">
<circle cx="35" cy="35" r="35" fill="#43AAFF"/>
<path d="M57.1593 36.4147L55.8482 35.1036L56.3117 34.6401C56.57 34.3818 56.57 33.9647 56.3117 33.7064L55.8217 33.2164C54.3848 31.7796 52.1732 31.3756 50.3258 32.21C49.7828 32.4483 49.2928 32.786 48.8558 33.2164L43.3333 38.7389L41.3932 36.7987C41.135 36.5405 40.7178 36.5405 40.4596 36.7987L39.7577 37.5006L17.5951 15.3248C16.6946 14.4243 15.2312 14.4243 14.324 15.3248C13.4168 16.2254 13.4235 17.6954 14.324 18.5959L36.4932 40.7651L35.7913 41.467C35.5331 41.7252 35.5331 42.1424 35.7913 42.4006L37.7314 44.3408L32.209 49.8632C31.7786 50.2936 31.4343 50.7902 31.2025 51.3266C30.792 52.2404 30.6662 53.2468 30.8516 54.2335C31.0237 55.2201 31.4939 56.1206 32.209 56.8291L32.699 57.3191C32.8314 57.4516 32.997 57.5112 33.1691 57.5112C33.3413 57.5112 33.5068 57.445 33.6393 57.3191L34.1028 56.8556L35.4139 58.1667C35.5463 58.2991 35.7119 58.3587 35.884 58.3587C36.0562 58.3587 36.2217 58.2925 36.3541 58.1667L57.1659 37.3616C57.2917 37.2358 57.3579 37.0702 57.3579 36.8914C57.3579 36.7127 57.2785 36.5339 57.1593 36.4147ZM15.2643 17.6556C14.8802 17.2716 14.8802 16.6425 15.2643 16.2585C15.4563 16.0731 15.7079 15.9737 15.9595 15.9737C16.2112 15.9737 16.4628 16.0731 16.6548 16.2651L38.824 38.4343L37.4268 39.8314L15.2643 17.6556ZM37.1951 41.9305L40.9297 38.1959L42.3997 39.6659L38.6651 43.4005L37.1951 41.9305ZM33.1427 55.8889C32.6262 55.3724 32.2818 54.7169 32.156 53.9951C32.0236 53.2733 32.1097 52.5317 32.4143 51.8629C32.5864 51.4723 32.8314 51.1147 33.1493 50.8035L49.796 34.1567C50.1139 33.8389 50.4714 33.5939 50.8621 33.4217C51.3323 33.2098 51.8355 33.1039 52.3387 33.1039C53.279 33.1039 54.1994 33.4681 54.8881 34.1501L54.9146 34.1766L33.1691 55.9087L33.1427 55.8889ZM35.8774 56.7563L35.0364 55.9154L54.9079 36.0439L55.7489 36.8848L35.8774 56.7563Z" fill="white"/>
</svg>
