<svg width="70" height="70" viewBox="0 0 70 70" fill="none" xmlns="http://www.w3.org/2000/svg">
<circle cx="35" cy="35" r="35" fill="#43AAFF"/>
<path d="M54.0666 32.2759L52.435 30.2592C52.0486 29.7848 51.8525 29.1836 51.885 28.5726L52.0133 25.9876C52.0583 25.0013 51.7673 24.029 51.1878 23.2297C50.6083 22.4304 49.7747 21.8514 48.8233 21.5876L46.33 20.9092C45.7366 20.7478 45.2219 20.3765 44.8816 19.8642L43.47 17.7009C42.9282 16.879 42.124 16.2649 41.1884 15.9586C40.2529 15.6523 39.2412 15.6719 38.3183 16.0142L35.88 16.9492C35.3139 17.1692 34.686 17.1692 34.12 16.9492L31.7 16.0142C30.7745 15.6693 29.7594 15.6483 28.8204 15.9546C27.8814 16.2609 27.074 16.8765 26.53 17.7009L25.1183 19.8642C24.778 20.3765 24.2633 20.7478 23.67 20.9092L21.1766 21.5876C20.2253 21.8514 19.3916 22.4304 18.8121 23.2297C18.2326 24.029 17.9416 25.0013 17.9866 25.9876L18.115 28.5726C18.1474 29.1836 17.9513 29.7848 17.565 30.2592L15.9333 32.2759C15.319 33.0469 14.9845 34.0035 14.9845 34.9892C14.9845 35.975 15.319 36.9316 15.9333 37.7026L17.565 39.7192C17.9513 40.1937 18.1474 40.7949 18.115 41.4059L17.9866 43.9909C17.9416 44.9772 18.2326 45.9495 18.8121 46.7488C19.3916 47.5481 20.2253 48.1271 21.1766 48.3909L23.67 49.0692C24.2633 49.2307 24.778 49.602 25.1183 50.1142L26.53 52.2776C27.0699 53.1015 27.874 53.7173 28.8102 54.0238C29.7464 54.3303 30.7589 54.3093 31.6816 53.9642L34.12 53.0292C34.686 52.8092 35.3139 52.8092 35.88 53.0292L38.3 53.9642C39.2255 54.3092 40.2405 54.3302 41.1795 54.0239C42.1185 53.7175 42.9259 53.1019 43.47 52.2776L44.8816 50.1142C45.2219 49.602 45.7366 49.2307 46.33 49.0692L48.8233 48.3909C49.7747 48.1271 50.6083 47.5481 51.1878 46.7488C51.7673 45.9495 52.0583 44.9772 52.0133 43.9909L51.885 41.4059C51.8525 40.7949 52.0486 40.1937 52.435 39.7192L54.0666 37.7026C54.6809 36.9316 55.0154 35.975 55.0154 34.9892C55.0154 34.0035 54.6809 33.0469 54.0666 32.2759ZM52.6366 36.5476L51.005 38.5642C50.3395 39.3927 50.0003 40.4362 50.0516 41.4976L50.18 44.0826C50.2084 44.6501 50.0421 45.2102 49.7087 45.6703C49.3753 46.1305 48.8948 46.4629 48.3466 46.6126L45.8533 47.2909C44.8239 47.5617 43.9339 48.2095 43.36 49.1059L41.93 51.2692C41.6207 51.7465 41.1572 52.1032 40.6167 52.2801C40.0762 52.4569 39.4915 52.4431 38.96 52.2409L36.54 51.3242C35.5494 50.9393 34.4505 50.9393 33.46 51.3242L31.04 52.2409C30.5087 52.4459 29.923 52.4611 29.3819 52.2841C28.8407 52.107 28.3773 51.7486 28.07 51.2692L26.64 49.1059C26.066 48.2095 25.176 47.5617 24.1466 47.2909L21.6533 46.6126C21.1052 46.4629 20.6246 46.1305 20.2912 45.6703C19.9578 45.2102 19.7915 44.6501 19.82 44.0826L19.9483 41.4976C19.9996 40.4362 19.6605 39.3927 18.995 38.5642L17.3633 36.5476C17.0073 36.1062 16.8132 35.5563 16.8132 34.9892C16.8132 34.4222 17.0073 33.8723 17.3633 33.4309L18.995 31.4142C19.6605 30.5858 19.9996 29.5423 19.9483 28.4809L19.82 25.8959C19.7915 25.3284 19.9578 24.7682 20.2912 24.3081C20.6246 23.848 21.1052 23.5156 21.6533 23.3659L24.1466 22.6876C25.176 22.4168 26.066 21.7689 26.64 20.8726L28.07 18.7092C28.2935 18.3583 28.6026 18.0698 28.9682 17.871C29.3337 17.6722 29.7438 17.5695 30.16 17.5726C30.4608 17.574 30.759 17.6299 31.04 17.7376L33.46 18.6542C34.4494 19.0453 35.5505 19.0453 36.54 18.6542L38.96 17.7376C39.4912 17.5326 40.0769 17.5174 40.618 17.6944C41.1592 17.8714 41.6226 18.2299 41.93 18.7092L43.36 20.8726C43.9339 21.7689 44.8239 22.4168 45.8533 22.6876L48.3466 23.3659C48.8948 23.5156 49.3753 23.848 49.7087 24.3081C50.0421 24.7682 50.2084 25.3284 50.18 25.8959L50.0516 28.4809C50.0003 29.5423 50.3395 30.5858 51.005 31.4142L52.6366 33.4309C52.9926 33.8723 53.1867 34.4222 53.1867 34.9892C53.1867 35.5563 52.9926 36.1062 52.6366 36.5476Z" fill="white"/>
<path d="M42.4433 28.8476L28.8583 42.4326C28.6857 42.6052 28.4516 42.7022 28.2075 42.7022C27.9634 42.7022 27.7292 42.6052 27.5566 42.4326C27.384 42.26 27.287 42.0259 27.287 41.7818C27.287 41.5377 27.384 41.3036 27.5566 41.131L41.1416 27.546C41.3142 27.3733 41.5484 27.2764 41.7925 27.2764C42.0366 27.2764 42.2707 27.3733 42.4433 27.546C42.6159 27.7186 42.7129 27.9527 42.7129 28.1968C42.7129 28.4409 42.6159 28.675 42.4433 28.8476Z" fill="white"/>
<path d="M40.83 36.9873C40.0721 36.9873 39.3313 37.212 38.7012 37.6331C38.0711 38.0541 37.58 38.6525 37.29 39.3527C37 40.0528 36.9241 40.8232 37.0719 41.5665C37.2198 42.3098 37.5847 42.9925 38.1206 43.5284C38.6564 44.0642 39.3392 44.4292 40.0824 44.577C40.8257 44.7249 41.5961 44.649 42.2963 44.359C42.9964 44.069 43.5948 43.5778 44.0159 42.9477C44.4369 42.3176 44.6616 41.5768 44.6616 40.819C44.6568 39.8042 44.2516 38.8324 43.534 38.1149C42.8165 37.3974 41.8447 36.9921 40.83 36.9873ZM40.83 42.8173C40.4347 42.8173 40.0484 42.7001 39.7197 42.4805C39.3911 42.2609 39.135 41.9488 38.9837 41.5837C38.8325 41.2185 38.7929 40.8168 38.87 40.4291C38.9471 40.0415 39.1375 39.6854 39.4169 39.4059C39.6964 39.1265 40.0525 38.9361 40.4401 38.859C40.8277 38.7819 41.2295 38.8215 41.5947 38.9728C41.9598 39.124 42.2719 39.3801 42.4915 39.7088C42.7111 40.0374 42.8283 40.4237 42.8283 40.819C42.8268 41.3485 42.6158 41.856 42.2414 42.2304C41.8669 42.6048 41.3595 42.8158 40.83 42.8173Z" fill="white"/>
<path d="M29.1699 25.3271C28.4121 25.3271 27.6713 25.5519 27.0412 25.9729C26.4111 26.3939 25.9199 26.9924 25.6299 27.6925C25.3399 28.3926 25.264 29.1631 25.4119 29.9063C25.5597 30.6496 25.9247 31.3323 26.4605 31.8682C26.9964 32.4041 27.6791 32.769 28.4224 32.9169C29.1657 33.0647 29.9361 32.9888 30.6362 32.6988C31.3364 32.4088 31.9348 31.9177 32.3558 31.2876C32.7769 30.6575 33.0016 29.9166 33.0016 29.1588C32.9968 28.1441 32.5915 27.1723 31.874 26.4547C31.1565 25.7372 30.1847 25.332 29.1699 25.3271ZM29.1699 31.1571C28.7747 31.1571 28.3883 31.0399 28.0597 30.8204C27.7311 30.6008 27.475 30.2887 27.3237 29.9235C27.1725 29.5584 27.1329 29.1566 27.21 28.769C27.2871 28.3813 27.4774 28.0253 27.7569 27.7458C28.0364 27.4663 28.3924 27.276 28.7801 27.1989C29.1677 27.1218 29.5695 27.1613 29.9347 27.3126C30.2998 27.4638 30.6119 27.72 30.8315 28.0486C31.0511 28.3772 31.1683 28.7636 31.1683 29.1588C31.1668 29.6884 30.9558 30.1958 30.5814 30.5702C30.2069 30.9447 29.6995 31.1557 29.1699 31.1571Z" fill="white"/>
</svg>
